<svg width="210" height="25" viewBox="0 0 210 25" fill="none" xmlns="http://www.w3.org/2000/svg">
<path d="M16.256 11.852C17.4933 12.3213 18.464 13.0253 19.168 13.964C19.872 14.9027 20.224 15.98 20.224 17.196C20.224 18.5827 19.7547 19.788 18.816 20.812C17.8773 21.836 16.608 22.6253 15.008 23.18C13.408 23.7133 11.648 23.98 9.728 23.98C8.21333 23.98 6.66667 23.7987 5.088 23.436C3.53067 23.0733 2.03733 22.5293 0.608 21.804L2.496 17.388C3.49867 17.9 4.56533 18.2947 5.696 18.572C6.848 18.828 7.95733 18.956 9.024 18.956C10.432 18.956 11.584 18.732 12.48 18.284C13.376 17.8147 13.824 17.164 13.824 16.332C13.824 15.6707 13.5467 15.18 12.992 14.86C12.4373 14.54 11.6907 14.38 10.752 14.38H5.024V9.74H10.24C11.0933 9.74 11.7547 9.56933 12.224 9.228C12.6933 8.88667 12.928 8.428 12.928 7.852C12.928 7.12667 12.5653 6.572 11.84 6.188C11.1147 5.78267 10.176 5.58 9.024 5.58C8.08533 5.58 7.09333 5.71867 6.048 5.996C5.00267 6.252 4.01067 6.62533 3.072 7.116L1.216 2.316C3.60533 1.164 6.22933 0.587999 9.088 0.587999C10.9227 0.587999 12.6187 0.854666 14.176 1.388C15.7547 1.9 17.0027 2.64666 17.92 3.628C18.8587 4.60933 19.328 5.772 19.328 7.116C19.328 8.16133 19.0507 9.1 18.496 9.932C17.9627 10.7427 17.216 11.3827 16.256 11.852ZM42.754 21.804C41.602 22.4653 40.2047 22.988 38.562 23.372C36.9193 23.756 35.2127 23.948 33.442 23.948C31.0527 23.948 29.0153 23.66 27.33 23.084C25.666 22.508 24.4073 21.708 23.554 20.684C22.722 19.66 22.306 18.476 22.306 17.132C22.306 15.9587 22.626 14.924 23.266 14.028C23.906 13.132 24.7913 12.4387 25.922 11.948C25.0473 11.5 24.3753 10.8813 23.906 10.092C23.458 9.28133 23.234 8.396 23.234 7.436C23.234 6.19867 23.618 5.068 24.386 4.044C25.1753 3.02 26.37 2.19867 27.97 1.58C29.57 0.961332 31.5433 0.651999 33.89 0.651999C35.362 0.651999 36.8127 0.790665 38.242 1.068C39.6713 1.34533 40.93 1.71867 42.018 2.188L40.29 6.924C38.306 6.04933 36.258 5.612 34.146 5.612C32.6313 5.612 31.5007 5.81467 30.754 6.22C30.0073 6.604 29.634 7.148 29.634 7.852C29.634 9.132 30.562 9.772 32.418 9.772H38.754V14.604H32.002C30.914 14.604 30.0927 14.7853 29.538 15.148C28.9833 15.4893 28.706 16.0013 28.706 16.684C28.706 17.4093 29.1113 17.9747 29.922 18.38C30.7327 18.7853 31.9913 18.988 33.698 18.988C34.914 18.988 36.162 18.828 37.442 18.508C38.7433 18.1667 39.874 17.708 40.834 17.132L42.754 21.804ZM54.3148 0.875999C57.5574 0.875999 60.0854 1.65467 61.8988 3.212C63.7121 4.748 64.6188 6.91333 64.6188 9.708C64.6188 12.396 63.7974 14.4973 62.1548 16.012C60.5334 17.5053 58.2401 18.252 55.2748 18.252C53.7174 18.252 52.0854 17.9533 50.3788 17.356V23.5H44.1388V10.444C44.1388 7.35067 45.0028 4.98267 46.7308 3.34C48.4588 1.69733 50.9868 0.875999 54.3148 0.875999ZM54.2188 13.644C55.5201 13.644 56.5121 13.324 57.1948 12.684C57.8988 12.0227 58.2508 11.0733 58.2508 9.836C58.2508 8.64133 57.9094 7.70267 57.2268 7.02C56.5654 6.33733 55.6374 5.996 54.4428 5.996C53.1628 5.996 52.1601 6.38 51.4348 7.148C50.7308 7.916 50.3788 8.99333 50.3788 10.38V12.62C51.5094 13.3027 52.7894 13.644 54.2188 13.644ZM88.8995 1.1V23.5H82.5635V14.764H73.9235V23.5H67.5875V1.1H73.9235V9.516H82.5635V1.1H88.8995ZM104.721 7.724C107.579 7.724 109.809 8.41733 111.409 9.804C113.009 11.1907 113.809 13.1533 113.809 15.692C113.809 18.3587 112.902 20.4173 111.089 21.868C109.275 23.2973 106.683 24.012 103.313 24.012C100.006 24.012 97.5098 23.2973 95.8245 21.868C94.1605 20.4173 93.3285 18.2733 93.3285 15.436V1.1H99.5685V8.748C101.339 8.06533 103.057 7.724 104.721 7.724ZM122.481 1.1V23.5H116.209V1.1H122.481ZM103.633 19.212C104.849 19.212 105.787 18.9133 106.449 18.316C107.11 17.7187 107.441 16.8867 107.441 15.82C107.441 14.7107 107.078 13.868 106.353 13.292C105.649 12.6947 104.667 12.396 103.409 12.396C102.747 12.396 102.075 12.4813 101.393 12.652C100.731 12.8227 100.123 13.0573 99.5685 13.356V15.276C99.5685 16.5347 99.9205 17.5053 100.625 18.188C101.329 18.8707 102.331 19.212 103.633 19.212ZM157.643 1.1V23.5H127.275V1.1H133.515V18.476H139.371V1.1H145.611V18.476H151.403V1.1H157.643ZM171.487 14.924H168.607V23.5H162.303V1.1H168.607V9.804H171.647L176.991 1.1H183.647L176.639 11.916L183.711 23.5H176.575L171.487 14.924ZM196.627 23.948C194.259 23.948 192.125 23.4467 190.227 22.444C188.349 21.4413 186.867 20.0547 185.779 18.284C184.712 16.5133 184.179 14.5187 184.179 12.3C184.179 10.0813 184.712 8.08667 185.779 6.316C186.867 4.54533 188.349 3.15867 190.227 2.156C192.125 1.15333 194.259 0.651999 196.627 0.651999C198.995 0.651999 201.117 1.15333 202.995 2.156C204.893 3.15867 206.376 4.54533 207.443 6.316C208.531 8.08667 209.075 10.0813 209.075 12.3C209.075 14.5187 208.531 16.5133 207.443 18.284C206.376 20.0547 204.893 21.4413 202.995 22.444C201.117 23.4467 198.995 23.948 196.627 23.948ZM196.627 18.7C197.757 18.7 198.781 18.4333 199.699 17.9C200.616 17.3667 201.341 16.62 201.875 15.66C202.408 14.6787 202.675 13.5587 202.675 12.3C202.675 11.0413 202.408 9.932 201.875 8.972C201.341 7.99067 200.616 7.23333 199.699 6.7C198.781 6.16667 197.757 5.9 196.627 5.9C195.496 5.9 194.472 6.16667 193.555 6.7C192.637 7.23333 191.912 7.99067 191.379 8.972C190.845 9.932 190.579 11.0413 190.579 12.3C190.579 13.5587 190.845 14.6787 191.379 15.66C191.912 16.62 192.637 17.3667 193.555 17.9C194.472 18.4333 195.496 18.7 196.627 18.7Z" fill="#45403D"/>
</svg>
